<svg width="198" height="197" viewBox="0 0 198 197" fill="none" xmlns="http://www.w3.org/2000/svg">
<rect x="-0.500069" y="1.0841" width="102.392" height="157.418" rx="13.3853" transform="matrix(-0.938268 0.345909 0.345909 0.938268 96.3112 0.239902)" fill="#CACACA"/>
<rect x="-0.500069" y="1.0841" width="102.392" height="157.418" rx="13.3853" transform="matrix(-0.938268 0.345909 0.345909 0.938268 96.3112 0.239902)" stroke="white" stroke-width="1.6884"/>
<g clip-path="url(#clip0_1_575)">
<path d="M84.37 82.6606C83.967 81.5675 83.1463 80.6792 82.0884 80.1913C81.0305 79.7033 79.8221 79.6555 78.729 80.0585L66.3644 84.6169C65.2713 85.0199 64.3831 85.8406 63.8951 86.8985C63.4071 87.9564 63.3594 89.1648 63.7624 90.2579L68.3208 102.622C68.7238 103.716 69.5445 104.604 70.6024 105.092C71.6603 105.58 72.8687 105.628 73.9618 105.225L86.3263 100.666C87.4194 100.263 88.3077 99.4424 88.7956 98.3845C89.2836 97.3266 89.3314 96.1182 88.9284 95.0251L84.37 82.6606Z" stroke="#E4E4E4" stroke-width="2.19634" stroke-linecap="round" stroke-linejoin="round"/>
<path d="M79.5717 90.2808C78.1491 90.8053 76.5706 90.0771 76.0461 88.6545C75.5216 87.2318 76.2497 85.6534 77.6724 85.1289C79.0951 84.6044 80.6735 85.3325 81.198 86.7551C81.7225 88.1778 80.9944 89.7563 79.5717 90.2808Z" stroke="#E4E4E4" stroke-width="2.19634" stroke-linecap="round" stroke-linejoin="round"/>
<path d="M73.9785 94.2408L86.3263 100.666L73.8247 105.275C72.7679 105.664 71.5997 105.618 70.577 105.147C69.5543 104.675 68.7608 103.816 68.3713 102.759L68.3207 102.622C68.1437 102.142 68.256 101.891 68.4495 101.416L70.9325 95.3567C71.0482 95.0743 71.2215 94.819 71.4413 94.6073C71.6612 94.3955 71.9227 94.232 72.2093 94.127C72.496 94.022 72.8013 93.9778 73.1059 93.9974C73.4105 94.017 73.7077 94.0999 73.9785 94.2408Z" stroke="#E4E4E4" stroke-width="2.19634" stroke-linecap="round" stroke-linejoin="round"/>
</g>
<rect x="97.0467" y="5.41149" width="102.392" height="157.414" rx="13.3853" transform="rotate(13.6334 97.0467 5.41149)" fill="#E4E4E4"/>
<rect x="97.0467" y="5.41149" width="102.392" height="157.414" rx="13.3853" transform="rotate(13.6334 97.0467 5.41149)" stroke="white" stroke-width="1.6884"/>
<g clip-path="url(#clip1_1_575)">
<path d="M119.129 84.9762C119.404 83.844 120.117 82.8673 121.111 82.2609C122.106 81.6545 123.301 81.4681 124.433 81.7427L137.24 84.8489C138.372 85.1235 139.349 85.8366 139.955 86.8313C140.562 87.8261 140.748 89.021 140.474 90.1532L137.367 102.96C137.093 104.092 136.38 105.069 135.385 105.675C134.39 106.282 133.195 106.468 132.063 106.193L119.256 103.087C118.124 102.813 117.147 102.1 116.541 101.105C115.935 100.11 115.748 98.9151 116.023 97.7829L119.129 84.9762Z" stroke="#CECECE" stroke-width="2.19634" stroke-linecap="round" stroke-linejoin="round"/>
<path d="M124.772 91.9945C126.245 92.3519 127.73 91.4471 128.087 89.9735C128.444 88.5 127.539 87.0157 126.066 86.6584C124.592 86.301 123.108 87.2058 122.751 88.6793C122.393 90.1528 123.298 91.6371 124.772 91.9945Z" stroke="#CECECE" stroke-width="2.19634" stroke-linecap="round" stroke-linejoin="round"/>
<path d="M130.783 95.2844L119.256 103.087L132.205 106.228C133.299 106.493 134.455 106.313 135.416 105.727C136.378 105.14 137.067 104.196 137.333 103.102L137.367 102.96C137.488 102.462 137.347 102.226 137.101 101.776L133.937 96.0426C133.79 95.7753 133.588 95.5417 133.346 95.3566C133.103 95.1716 132.824 95.0392 132.527 94.9678C132.231 94.8965 131.922 94.8878 131.622 94.9423C131.322 94.9968 131.036 95.1133 130.783 95.2844Z" stroke="#CECECE" stroke-width="2.19634" stroke-linecap="round" stroke-linejoin="round"/>
</g>
<mask id="path-9-outside-1_1_575" maskUnits="userSpaceOnUse" x="50.8861" y="10.2997" width="143.866" height="187.671" fill="black">
<rect fill="white" x="50.8861" y="10.2997" width="143.866" height="187.671"/>
<path d="M186.72 12.0867L194.068 17.5353L61.1154 196.827L53.7677 191.378L186.72 12.0867Z"/>
</mask>
<path d="M186.72 12.0867L194.068 17.5353L61.1154 196.827L53.7677 191.378L186.72 12.0867Z" fill="#F8F8F8"/>
<path d="M53.7677 191.378L55.802 192.887L188.754 13.5952L186.72 12.0867L184.686 10.5781L51.7334 189.87L53.7677 191.378Z" fill="#CACACA" mask="url(#path-9-outside-1_1_575)"/>
<defs>
<clipPath id="clip0_1_575">
<rect width="26.3561" height="26.3561" fill="white" transform="matrix(-0.938268 0.345909 0.345909 0.938268 84.1516 75.719)"/>
</clipPath>
<clipPath id="clip1_1_575">
<rect width="26.3561" height="26.3561" fill="white" transform="translate(118.548 78.0554) rotate(13.6334)"/>
</clipPath>
</defs>
</svg>
