<svg width="24" height="24" viewBox="0 0 24 24" fill="none" xmlns="http://www.w3.org/2000/svg">
<path d="M20.5603 10.564L13.0603 3.06399C12.779 2.7829 12.3977 2.625 12 2.625C11.6024 2.625 11.221 2.7829 10.9397 3.06399L3.4397 10.564C3.29973 10.7029 3.18878 10.8683 3.1133 11.0505C3.03782 11.2327 2.99931 11.428 3.00001 11.6252V20.6252C3.00001 20.8242 3.07903 21.0149 3.21968 21.1556C3.36033 21.2962 3.5511 21.3752 3.75001 21.3752H9.75001C9.94892 21.3752 10.1397 21.2962 10.2803 21.1556C10.421 21.0149 10.5 20.8242 10.5 20.6252V15.3752H13.5V20.6252C13.5 20.8242 13.579 21.0149 13.7197 21.1556C13.8603 21.2962 14.0511 21.3752 14.25 21.3752H20.25C20.4489 21.3752 20.6397 21.2962 20.7803 21.1556C20.921 21.0149 21 20.8242 21 20.6252V11.6252C21.0007 11.428 20.9622 11.2327 20.8867 11.0505C20.8112 10.8683 20.7003 10.7029 20.5603 10.564ZM19.5 19.8752H15V14.6252C15 14.4263 14.921 14.2356 14.7803 14.0949C14.6397 13.9543 14.4489 13.8752 14.25 13.8752H9.75001C9.5511 13.8752 9.36033 13.9543 9.21968 14.0949C9.07903 14.2356 9.00001 14.4263 9.00001 14.6252V19.8752H4.50001V11.6252L12 4.12524L19.5 11.6252V19.8752Z" fill="black"/>
</svg>
