<svg width="16" height="16" viewBox="0 0 16 16" fill="none" xmlns="http://www.w3.org/2000/svg">
<path d="M14.31 6.9L10.875 5.215C10.8525 5.2084 10.8319 5.19624 10.8153 5.17964C10.7987 5.16304 10.7866 5.14253 10.78 5.12L9.08499 1.685C8.86999 1.235 8.43499 1 7.99999 1C7.56499 1 7.12999 1.235 6.91499 1.685L5.21499 5.12C5.20881 5.14252 5.19745 5.16329 5.18183 5.18066C5.1662 5.19802 5.14674 5.21149 5.12499 5.22L1.68499 6.91C1.47899 7.01001 1.3053 7.16597 1.18377 7.36006C1.06225 7.55414 0.997803 7.77851 0.997803 8.0075C0.997803 8.23649 1.06225 8.46086 1.18377 8.65494C1.3053 8.84903 1.47899 9.00499 1.68499 9.105L5.12499 10.785C5.17499 10.8 5.19999 10.835 5.21999 10.875L6.91499 14.315C7.12999 14.765 7.56499 15 8.01499 15C8.24298 15.0012 8.46658 14.9374 8.65962 14.816C8.85266 14.6947 9.00714 14.5209 9.10499 14.315L10.785 10.875C10.8 10.83 10.835 10.8 10.88 10.785L14.315 9.085C14.5196 8.98446 14.692 8.82857 14.8126 8.63503C14.9331 8.44148 14.9971 8.21802 14.9971 7.99C14.9971 7.76198 14.9331 7.53852 14.8126 7.34497C14.692 7.15143 14.5196 6.99554 14.315 6.895L14.31 6.9ZM11.745 7.145L10.16 8.53C9.83999 8.80851 9.62039 9.18447 9.53499 9.6L9.13499 11.67C9.12934 11.7003 9.11534 11.7284 9.09455 11.7511C9.07376 11.7739 9.04703 11.7903 9.01737 11.7986C8.98771 11.807 8.95631 11.8068 8.92673 11.7982C8.89715 11.7896 8.87056 11.7729 8.84999 11.75L7.46999 10.16C7.18944 9.84092 6.81167 9.62304 6.39499 9.54L4.32499 9.135C4.29614 9.12805 4.2697 9.11344 4.24846 9.09273C4.22722 9.07201 4.21196 9.04595 4.20428 9.01729C4.1966 8.98863 4.19679 8.95843 4.20484 8.92986C4.21288 8.9013 4.22848 8.87544 4.24999 8.855L5.83499 7.47C6.15313 7.19075 6.37092 6.81488 6.45499 6.4L6.85999 4.33C6.86626 4.30076 6.88037 4.27377 6.90081 4.25192C6.92124 4.23008 6.94722 4.2142 6.97598 4.20598C7.00474 4.19777 7.03519 4.19752 7.06408 4.20527C7.09297 4.21303 7.11921 4.22849 7.13999 4.25L8.53999 5.84C8.81999 6.15 9.18999 6.38 9.61499 6.46L11.685 6.86C11.805 6.895 11.855 7.05 11.745 7.145Z" fill="url(#paint0_linear_1_1934)"/>
<defs>
<linearGradient id="paint0_linear_1_1934" x1="0.994986" y1="1" x2="14.945" y2="1" gradientUnits="userSpaceOnUse">
<stop stop-color="#EC0C43"/>
<stop offset="1" stop-color="#FBB03B"/>
</linearGradient>
</defs>
</svg>
