<svg width="39" height="40" viewBox="0 0 39 40" fill="none" xmlns="http://www.w3.org/2000/svg">
<g opacity="0.1">
<path d="M31.1999 21.2H7.19993C6.56341 21.2 5.95296 21.4529 5.50287 21.9029C5.05278 22.353 4.79993 22.9635 4.79993 23.6V29.6C4.79993 30.2365 5.05278 30.847 5.50287 31.2971C5.95296 31.7471 6.56341 32 7.19993 32H31.1999C31.8364 32 32.4469 31.7471 32.897 31.2971C33.3471 30.847 33.5999 30.2365 33.5999 29.6V23.6C33.5999 22.9635 33.3471 22.353 32.897 21.9029C32.4469 21.4529 31.8364 21.2 31.1999 21.2ZM31.1999 29.6H7.19993V23.6H31.1999V29.6ZM31.1999 8H7.19993C6.56341 8 5.95296 8.25286 5.50287 8.70294C5.05278 9.15303 4.79993 9.76348 4.79993 10.4V16.4C4.79993 17.0365 5.05278 17.647 5.50287 18.0971C5.95296 18.5471 6.56341 18.8 7.19993 18.8H31.1999C31.8364 18.8 32.4469 18.5471 32.897 18.0971C33.3471 17.647 33.5999 17.0365 33.5999 16.4V10.4C33.5999 9.76348 33.3471 9.15303 32.897 8.70294C32.4469 8.25286 31.8364 8 31.1999 8ZM31.1999 16.4H7.19993V10.4H31.1999V16.4Z" fill="black"/>
</g>
</svg>
