<svg width="39" height="40" viewBox="0 0 39 40" fill="none" xmlns="http://www.w3.org/2000/svg">
<rect width="38.4" height="40" rx="6" fill="#F8F0E1"/>
<path d="M31.2 21.2H7.19996C6.56344 21.2 5.95299 21.4529 5.5029 21.9029C5.05281 22.353 4.79996 22.9635 4.79996 23.6V29.6C4.79996 30.2365 5.05281 30.847 5.5029 31.2971C5.95299 31.7471 6.56344 32 7.19996 32H31.2C31.8365 32 32.4469 31.7471 32.897 31.2971C33.3471 30.847 33.6 30.2365 33.6 29.6V23.6C33.6 22.9635 33.3471 22.353 32.897 21.9029C32.4469 21.4529 31.8365 21.2 31.2 21.2ZM31.2 29.6H7.19996V23.6H31.2V29.6ZM31.2 8H7.19996C6.56344 8 5.95299 8.25286 5.5029 8.70294C5.05281 9.15303 4.79996 9.76348 4.79996 10.4V16.4C4.79996 17.0365 5.05281 17.647 5.5029 18.0971C5.95299 18.5471 6.56344 18.8 7.19996 18.8H31.2C31.8365 18.8 32.4469 18.5471 32.897 18.0971C33.3471 17.647 33.6 17.0365 33.6 16.4V10.4C33.6 9.76348 33.3471 9.15303 32.897 8.70294C32.4469 8.25286 31.8365 8 31.2 8ZM31.2 16.4H7.19996V10.4H31.2V16.4Z" fill="#FFA821"/>
</svg>
