<svg width="40" height="40" viewBox="0 0 40 40" fill="none" xmlns="http://www.w3.org/2000/svg">
<rect width="40" height="40" rx="6" fill="#EC9E0C" fill-opacity="0.1"/>
<path d="M16.3266 6.53064H8.97962C8.33011 6.53064 7.7072 6.78866 7.24793 7.24793C6.78866 7.7072 6.53064 8.33011 6.53064 8.97962V16.3266C6.53064 16.9761 6.78866 17.599 7.24793 18.0582C7.7072 18.5175 8.33011 18.7755 8.97962 18.7755H16.3266C16.9761 18.7755 17.599 18.5175 18.0582 18.0582C18.5175 17.599 18.7755 16.9761 18.7755 16.3266V8.97962C18.7755 8.33011 18.5175 7.7072 18.0582 7.24793C17.599 6.78866 16.9761 6.53064 16.3266 6.53064ZM16.3266 16.3266H8.97962V8.97962H16.3266V16.3266ZM31.0204 6.53064H23.6735C23.024 6.53064 22.4011 6.78866 21.9418 7.24793C21.4825 7.7072 21.2245 8.33011 21.2245 8.97962V16.3266C21.2245 16.9761 21.4825 17.599 21.9418 18.0582C22.4011 18.5175 23.024 18.7755 23.6735 18.7755H31.0204C31.6699 18.7755 32.2929 18.5175 32.7521 18.0582C33.2114 17.599 33.4694 16.9761 33.4694 16.3266V8.97962C33.4694 8.33011 33.2114 7.7072 32.7521 7.24793C32.2929 6.78866 31.6699 6.53064 31.0204 6.53064ZM31.0204 16.3266H23.6735V8.97962H31.0204V16.3266ZM16.3266 21.2245H8.97962C8.33011 21.2245 7.7072 21.4825 7.24793 21.9418C6.78866 22.4011 6.53064 23.024 6.53064 23.6735V31.0204C6.53064 31.6699 6.78866 32.2929 7.24793 32.7521C7.7072 33.2114 8.33011 33.4694 8.97962 33.4694H16.3266C16.9761 33.4694 17.599 33.2114 18.0582 32.7521C18.5175 32.2929 18.7755 31.6699 18.7755 31.0204V23.6735C18.7755 23.024 18.5175 22.4011 18.0582 21.9418C17.599 21.4825 16.9761 21.2245 16.3266 21.2245ZM16.3266 31.0204H8.97962V23.6735H16.3266V31.0204ZM31.0204 21.2245H23.6735C23.024 21.2245 22.4011 21.4825 21.9418 21.9418C21.4825 22.4011 21.2245 23.024 21.2245 23.6735V31.0204C21.2245 31.6699 21.4825 32.2929 21.9418 32.7521C22.4011 33.2114 23.024 33.4694 23.6735 33.4694H31.0204C31.6699 33.4694 32.2929 33.2114 32.7521 32.7521C33.2114 32.2929 33.4694 31.6699 33.4694 31.0204V23.6735C33.4694 23.024 33.2114 22.4011 32.7521 21.9418C32.2929 21.4825 31.6699 21.2245 31.0204 21.2245ZM31.0204 31.0204H23.6735V23.6735H31.0204V31.0204Z" fill="#FFA821"/>
</svg>
