<svg width="24" height="24" viewBox="0 0 24 24" fill="none" xmlns="http://www.w3.org/2000/svg">
<path fill-rule="evenodd" clip-rule="evenodd" d="M11 14C11 14.2652 11.1054 14.5196 11.2929 14.7071C11.4804 14.8947 11.7348 15 12 15C12.2652 15 12.5196 14.8947 12.7071 14.7071C12.8946 14.5196 13 14.2652 13 14V6.00003H15C15.1978 5.99999 15.391 5.94132 15.5555 5.83143C15.7199 5.72155 15.848 5.56538 15.9237 5.38269C15.9993 5.19999 16.0192 4.99895 15.9806 4.805C15.942 4.61105 15.8468 4.43288 15.707 4.29303L12.707 1.29303C12.5195 1.10556 12.2652 1.00024 12 1.00024C11.7348 1.00024 11.4805 1.10556 11.293 1.29303L8.293 4.29303C8.15319 4.43288 8.05798 4.61105 8.01942 4.805C7.98085 4.99895 8.00065 5.19999 8.07632 5.38269C8.15199 5.56538 8.28013 5.72155 8.44454 5.83143C8.60895 5.94132 8.80225 5.99999 9 6.00003H11V14ZM4 8.00003C3.73478 8.00003 3.48043 8.10539 3.29289 8.29292C3.10536 8.48046 3 8.73481 3 9.00003V18C3 18.7957 3.31607 19.5587 3.87868 20.1214C4.44129 20.684 5.20435 21 6 21H18C18.7956 21 19.5587 20.684 20.1213 20.1214C20.6839 19.5587 21 18.7957 21 18V9.00003C21 8.73481 20.8946 8.48046 20.7071 8.29292C20.5196 8.10539 20.2652 8.00003 20 8.00003H18C17.7348 8.00003 17.4804 8.10539 17.2929 8.29292C17.1054 8.48046 17 8.73481 17 9.00003C17 9.26525 17.1054 9.5196 17.2929 9.70714C17.4804 9.89467 17.7348 10 18 10H19V18C19 18.2652 18.8946 18.5196 18.7071 18.7071C18.5196 18.8947 18.2652 19 18 19H6C5.73478 19 5.48043 18.8947 5.29289 18.7071C5.10536 18.5196 5 18.2652 5 18V10H6C6.26522 10 6.51957 9.89467 6.70711 9.70714C6.89464 9.5196 7 9.26525 7 9.00003C7 8.73481 6.89464 8.48046 6.70711 8.29292C6.51957 8.10539 6.26522 8.00003 6 8.00003H4Z" fill="#808080"/>
</svg>
