<svg width="24" height="24" viewBox="0 0 24 24" fill="none" xmlns="http://www.w3.org/2000/svg">
<path d="M10.9999 11.9999C11.2448 11.9999 11.4812 12.0899 11.6643 12.2526C11.8473 12.4154 11.9642 12.6397 11.9929 12.8829L11.9999 12.9999V17.9999C11.9996 18.2548 11.902 18.4999 11.727 18.6853C11.5521 18.8706 11.3129 18.9821 11.0585 18.9971C10.804 19.012 10.5535 18.9292 10.3581 18.7657C10.1626 18.6021 10.037 18.37 10.0069 18.1169L9.99988 17.9999V15.4139L4.70688 20.7069C4.52693 20.8863 4.28545 20.9904 4.0315 20.9981C3.77755 21.0059 3.53017 20.9167 3.33961 20.7487C3.14904 20.5806 3.02958 20.3464 3.00549 20.0934C2.98139 19.8405 3.05447 19.5879 3.20988 19.3869L3.29288 19.2929L8.58589 13.9999H5.99988C5.745 13.9996 5.49985 13.902 5.31452 13.7271C5.12918 13.5521 5.01765 13.313 5.00271 13.0585C4.98778 12.8041 5.07056 12.5535 5.23415 12.3581C5.39774 12.1626 5.62979 12.037 5.88288 12.0069L5.99988 11.9999H10.9999ZM19.2929 3.29292C19.4728 3.11357 19.7143 3.00944 19.9683 3.00169C20.2222 2.99393 20.4696 3.08313 20.6602 3.25116C20.8507 3.4192 20.9702 3.65347 20.9943 3.90639C21.0184 4.15931 20.9453 4.41192 20.7899 4.61292L20.7069 4.70691L15.4139 9.99992H17.9999C18.2548 10.0002 18.4999 10.0978 18.6853 10.2728C18.8706 10.4477 18.9821 10.6869 18.9971 10.9413C19.012 11.1958 18.9292 11.4463 18.7656 11.6417C18.602 11.8372 18.37 11.9628 18.1169 11.9929L17.9999 11.9999H12.9999C12.755 11.9999 12.5185 11.91 12.3355 11.7472C12.1525 11.5844 12.0355 11.3602 12.0069 11.1169L11.9999 10.9999V5.99992C12.0002 5.74504 12.0978 5.49988 12.2727 5.31455C12.4477 5.12921 12.6868 5.01768 12.9413 5.00274C13.1957 4.98781 13.4463 5.07059 13.6417 5.23418C13.8372 5.39777 13.9628 5.62982 13.9929 5.88292L13.9999 5.99992V8.58592L19.2929 3.29292Z" fill="#808080"/>
</svg>
